<mxfile host="app.diagrams.net" modified="2023-11-02T01:35:29.731Z" agent="Mozilla/5.0 (Macintosh; Intel Mac OS X 10_15_7) AppleWebKit/537.36 (KHTML, like Gecko) Chrome/118.0.0.0 Safari/537.36" etag="IHpbS_6pa3aC8xheK0fo" version="22.0.8" type="github">
  <diagram name="第 1 页" id="A1dDMgEm97pkvvVrS8Dr">
    <mxGraphModel dx="954" dy="616" grid="1" gridSize="10" guides="1" tooltips="1" connect="1" arrows="1" fold="1" page="1" pageScale="1" pageWidth="827" pageHeight="1169" math="0" shadow="0">
      <root>
        <mxCell id="0" />
        <mxCell id="1" parent="0" />
        <mxCell id="6SO5au3LFlLg9N9XlX-b-3" value="" style="edgeStyle=orthogonalEdgeStyle;rounded=0;orthogonalLoop=1;jettySize=auto;html=1;" edge="1" parent="1" source="6SO5au3LFlLg9N9XlX-b-1" target="6SO5au3LFlLg9N9XlX-b-2">
          <mxGeometry relative="1" as="geometry" />
        </mxCell>
        <mxCell id="6SO5au3LFlLg9N9XlX-b-1" value="&lt;div style=&quot;background-color:#1e1f22;color:#bcbec4&quot;&gt;&lt;pre style=&quot;font-family:&#39;JetBrains Mono&#39;,monospace;font-size:12.0pt;&quot;&gt;/appApi/photo/user/login&lt;/pre&gt;&lt;/div&gt;" style="rounded=0;whiteSpace=wrap;html=1;" vertex="1" parent="1">
          <mxGeometry x="210" y="90" width="310" height="50" as="geometry" />
        </mxCell>
        <mxCell id="6SO5au3LFlLg9N9XlX-b-5" value="" style="edgeStyle=orthogonalEdgeStyle;rounded=0;orthogonalLoop=1;jettySize=auto;html=1;" edge="1" parent="1" source="6SO5au3LFlLg9N9XlX-b-2" target="6SO5au3LFlLg9N9XlX-b-4">
          <mxGeometry relative="1" as="geometry" />
        </mxCell>
        <mxCell id="6SO5au3LFlLg9N9XlX-b-11" value="" style="edgeStyle=orthogonalEdgeStyle;rounded=0;orthogonalLoop=1;jettySize=auto;html=1;" edge="1" parent="1" source="6SO5au3LFlLg9N9XlX-b-2" target="6SO5au3LFlLg9N9XlX-b-10">
          <mxGeometry relative="1" as="geometry" />
        </mxCell>
        <mxCell id="6SO5au3LFlLg9N9XlX-b-2" value="校验设备id" style="whiteSpace=wrap;html=1;rounded=0;" vertex="1" parent="1">
          <mxGeometry x="305" y="215" width="120" height="60" as="geometry" />
        </mxCell>
        <mxCell id="6SO5au3LFlLg9N9XlX-b-4" value="校验设备id" style="whiteSpace=wrap;html=1;rounded=0;" vertex="1" parent="1">
          <mxGeometry x="305" y="355" width="120" height="60" as="geometry" />
        </mxCell>
        <mxCell id="6SO5au3LFlLg9N9XlX-b-10" value="&lt;div style=&quot;background-color:#1e1f22;color:#bcbec4&quot;&gt;&lt;pre style=&quot;font-family:&#39;Menlo-Regular&#39;,monospace;font-size:12.0pt;&quot;&gt;设备&lt;span style=&quot;color:#6aab73;font-family:&#39;JetBrains Mono&#39;,monospace;&quot;&gt;id&lt;/span&gt;&lt;span style=&quot;color:#6aab73;&quot;&gt;不能为空&lt;/span&gt;&lt;/pre&gt;&lt;/div&gt;" style="shape=parallelogram;perimeter=parallelogramPerimeter;whiteSpace=wrap;html=1;fixedSize=1;rounded=0;" vertex="1" parent="1">
          <mxGeometry x="505" y="215" width="215" height="65" as="geometry" />
        </mxCell>
      </root>
    </mxGraphModel>
  </diagram>
</mxfile>
